<svg aria-hidden="true" style="position:absolute;width:0;height:0" xmlns="http://www.w3.org/2000/svg" overflow="hidden"><defs><symbol id="burger" viewBox="0 0 32 32"><path fill="none" stroke="var(--color1, #fff)" stroke-width="1.454" d="M5.091 10.182h21.818M5.091 16h21.818M5.091 21.818h21.818"/><path fill="var(--color1, #fff)" opacity=".1" d="M2.182 0h27.636C31.023 0 32 .977 32 2.182v27.636A2.182 2.182 0 0 1 29.818 32H2.182A2.182 2.182 0 0 1 0 29.818V2.182C0 .977.977 0 2.182 0z"/></symbol><symbol id="close" viewBox="0 0 33 32"><path fill="none" stroke="var(--color1, #fff)" stroke-width="2.667" d="m2.801 2.248 28.284 28.284M2.248 30.532 30.532 2.248"/></symbol><symbol id="logo" viewBox="0 0 95 32"><path fill="var(--color1, #fff)" d="M0 15.68v15.68l13.76.003c7.568.002 28.936.002 47.485.002l33.725-.001.083-15.682L95.135 0H0v15.68zm27.362.162V30.39H.955V1.293h26.407v14.548zM6.03 7.127c-.628.638-.647.961-.557 9.404l.094 8.743.751.618c.692.569 1.344.617 8.329.617 8.161 0 8.584-.085 8.573-1.72-.012-1.624-.165-1.664-7.221-1.836l-6.614-.162-.086-7.579c-.073-6.482-.161-7.663-.606-8.163-.69-.775-1.859-.741-2.664.077zm31.319 3.407c.106.281.193 2.318.193 4.526v4.015h3.669c2.981 0 3.704.091 3.854.489.102.269.008.705-.208.97-.589.721-8.328.697-9.041-.027-.409-.416-.5-1.373-.5-5.281 0-2.625.095-4.87.212-4.988.405-.412 1.63-.213 1.822.296zm18.736-.067c4.285 1.863 4.285 8.239 0 10.102-1.638.712-4.794.565-6.284-.293-1.889-1.087-2.714-2.533-2.714-4.758 0-2.309.86-3.745 2.854-4.769 1.654-.849 4.536-.982 6.144-.282zm14.84.122c1.482.769 1.915 1.53 1.252 2.203-.468.476-.617.463-1.811-.155-3.101-1.608-6.735-.053-6.735 2.882 0 1.12.902 2.542 1.966 3.101 1.454.764 4.301.484 5.086-.501 1.056-1.325.783-1.594-1.723-1.697-2.223-.091-2.307-.124-2.307-.903 0-.793.053-.81 2.749-.901 3.215-.109 3.773.215 3.773 2.193 0 2.445-2.316 4.204-5.537 4.204-2.164 0-3.24-.402-4.571-1.706-2.636-2.584-1.739-7.326 1.67-8.836 1.421-.629 4.875-.565 6.186.116zm14.036.178c1.624.873 2.851 2.917 2.851 4.751s-1.226 3.879-2.851 4.751c-2.782 1.495-7.078.698-8.743-1.623-.51-.711-.655-1.403-.655-3.129s.145-2.418.655-3.129c1.665-2.321 5.961-3.118 8.743-1.623zm-34.275 1.826c-1.251.775-1.781 2.401-1.326 4.074.877 3.226 6.536 3.232 7.582.008.517-1.591-.047-3.266-1.377-4.09-1.315-.815-3.557-.811-4.879.008zm28.535-.102c-1.281.923-1.57 1.483-1.581 3.065-.008 1.191.16 1.664.835 2.35 1.03 1.046 1.927 1.3 3.824 1.083 2.109-.241 3.125-1.37 3.125-3.47 0-2.294-1.037-3.305-3.565-3.476-1.399-.094-2.035.014-2.639.448z"/></symbol></defs></svg>