<svg aria-hidden="true" style="position:absolute;width:0;height:0" xmlns="http://www.w3.org/2000/svg" overflow="hidden"><defs><symbol id="burger" viewBox="0 0 44 44"><path fill="none" stroke="var(--color1, #fff)" stroke-width="2" d="M7 14h30M7 22h30M7 30h30"/><path fill="var(--color1, #fff)" opacity=".1" d="M3 0h38a3 3 0 0 1 3 3v38a3 3 0 0 1-3 3H3a3 3 0 0 1-3-3V3a3 3 0 0 1 3-3z"/></symbol><symbol id="close" viewBox="0 0 46 44"><path fill="none" stroke-width="3.667" d="m3.85 3.091 38.892 38.89m-39.651 0 38.89-38.89"/></symbol><symbol id="chat" viewBox="0 0 45 44"><path fill="var(--color1, #005541)" d="M27.005 8.25H10.592c-.755 0-1.367.616-1.367 1.375S9.838 11 10.592 11h16.412c.755 0 1.367-.616 1.367-1.375s-.612-1.375-1.366-1.375zm-5.471 5.5H10.592c-.755 0-1.367.616-1.367 1.375s.613 1.375 1.367 1.375h10.942c.755 0 1.367-.616 1.367-1.375s-.613-1.375-1.367-1.375zM31.108 0H6.489c-3.017 0-5.47 2.467-5.47 5.5v27.503c0 .546.318 1.018.779 1.24l.008.004a1.358 1.358 0 0 0 1.458-.192l-.002.002 7.827-6.556h20.02c3.017 0 5.47-2.466 5.47-5.5v-16.5c0-3.033-2.454-5.5-5.47-5.5zm2.736 22a2.745 2.745 0 0 1-2.736 2.75H10.592c-.334 0-.641.121-.878.321l.002-.002-5.963 4.997V5.5a2.745 2.745 0 0 1 2.736-2.75h24.619a2.746 2.746 0 0 1 2.736 2.75V22zm5.47-11c-.755 0-1.367.616-1.367 1.375s.613 1.375 1.367 1.375a2.746 2.746 0 0 1 2.736 2.75v23.263l-4.618-3.712a1.367 1.367 0 0 0-.853-.3H17.431a2.745 2.745 0 0 1-2.736-2.75v-1.375c0-.759-.613-1.375-1.367-1.375s-1.367.616-1.367 1.375v1.375c0 3.034 2.454 5.5 5.471 5.5h18.667l6.464 5.2c.232.187.531.3.856.3.216-.001.42-.05.602-.139l-.008.004c.473-.231.774-.713.774-1.24V16.501c0-3.034-2.454-5.5-5.47-5.5z"/></symbol><symbol id="clients" viewBox="0 0 50 44"><path fill="var(--color1, #005541)" d="M25.056 16.703c4.581 0 8.307-3.746 8.307-8.351S29.636.001 25.056.001s-8.307 3.746-8.307 8.351 3.727 8.351 8.307 8.351zm0-13.823c3.002 0 5.443 2.454 5.443 5.472s-2.441 5.472-5.443 5.472-5.443-2.454-5.443-5.472 2.442-5.472 5.443-5.472zM41.861 16.703c2.895 0 5.252-2.369 5.252-5.28s-2.356-5.28-5.252-5.28-5.252 2.369-5.252 5.28 2.356 5.28 5.252 5.28zm0-7.679a2.4 2.4 0 1 1 0 4.8 2.4 2.4 0 1 1 0-4.8zM43.016 19.967h-2.215a6.492 6.492 0 0 0-5.891 3.778c-2.114-2.32-5.15-3.778-8.52-3.778h-2.669c-3.37 0-6.406 1.457-8.52 3.778a6.492 6.492 0 0 0-5.891-3.778H7.095a6.49 6.49 0 0 0-6.484 6.478V36.93a2.813 2.813 0 0 0 2.809 2.812h8.758c.147 1.718 1.584 3.071 3.331 3.071h19.094c1.747 0 3.184-1.353 3.331-3.071h8.658a2.914 2.914 0 0 0 2.909-2.913V26.445a6.49 6.49 0 0 0-6.484-6.479zm-39.54 6.479c0-1.985 1.623-3.599 3.619-3.599H9.31c1.996 0 3.619 1.615 3.619 3.599v.986c-.963 2.521-.764 4.032-.764 9.431H3.476V26.446zm31.605 13.007a.481.481 0 0 1-.479.482H15.508a.481.481 0 0 1-.479-.482v-7.867c0-4.818 3.899-8.738 8.691-8.738h2.669c4.792 0 8.691 3.92 8.691 8.738v7.867zm11.554-2.623c0 .05.534.033-8.689.033 0-5.438.198-6.914-.764-9.431v-.986c0-1.985 1.623-3.599 3.619-3.599h2.216c1.996 0 3.619 1.615 3.619 3.599V36.83zM8.25 16.703c2.895 0 5.252-2.369 5.252-5.28s-2.356-5.28-5.252-5.28-5.252 2.369-5.252 5.28 2.356 5.28 5.252 5.28zm0-7.679a2.4 2.4 0 1 1 0 4.8 2.4 2.4 0 1 1 0-4.8z"/></symbol><symbol id="code" viewBox="0 0 44 44"><path fill="var(--color1, #005541)" d="M27.314.594 25.855.048a.503.503 0 0 0-.552.081c-.18.139-.302.348-.365.625l-8.769 41.37a1.273 1.273 0 0 0 .062.794l-.003-.008c.101.245.254.411.459.497l1.457.544c.188.086.373.059.552-.08s.301-.348.364-.625l8.77-41.371c.063-.277.043-.54-.059-.785s-.254-.411-.458-.496zm-13.38 7.284v-.019c0-.278-.09-.536-.242-.745l.002.004-1.197-1.653c-.159-.22-.343-.331-.551-.331s-.392.111-.55.331L.24 20.873c-.15.205-.24.463-.24.741v.02-.001.019c0 .278.09.536.242.745l-.002-.004 11.156 15.409c.159.221.343.33.551.33s.392-.11.551-.33l1.197-1.652c.15-.205.24-.463.24-.741v-.021.001-.019c0-.278-.09-.536-.242-.745l.002.004-9.409-12.994 9.408-12.994c.15-.205.24-.463.24-.741v-.02.001zm29.827 12.994L32.604 5.463c-.16-.22-.343-.331-.55-.331s-.391.111-.551.331l-1.197 1.653c-.16.22-.239.474-.239.76s.079.54.239.76l9.409 12.995-9.409 12.995c-.16.22-.239.474-.239.76s.079.54.239.761l1.197 1.652c.161.221.343.33.551.33s.39-.11.55-.33L43.761 22.39c.15-.205.24-.463.24-.741v-.021.001-.019c0-.278-.09-.536-.242-.745l.002.004z"/></symbol><symbol id="coffee" viewBox="0 0 44 44"><path fill="var(--color1, #005541)" d="M26.736 8.481c1.682-1.367 2.063-2.827 2.087-3.812.057-2.396-1.825-4.149-2.04-4.341a1.28 1.28 0 0 0-1.819.105l-.001.001a1.301 1.301 0 0 0 .107 1.83c.013.011 1.204 1.133 1.175 2.342-.015.645-.385 1.252-1.129 1.857-1.682 1.367-2.063 2.827-2.087 3.812-.057 2.396 1.825 4.149 2.04 4.341.246.22.553.328.86.328h.002c.382 0 .725-.167.96-.432l.001-.001a1.295 1.295 0 0 0-.103-1.827l-.001-.001c-.338-.309-1.211-1.336-1.18-2.356.019-.641.388-1.245 1.129-1.847zm-8.182 0c1.682-1.367 2.063-2.827 2.087-3.812.057-2.396-1.825-4.149-2.04-4.341a1.28 1.28 0 0 0-1.819.105l-.001.001a1.3 1.3 0 0 0 .107 1.83c.013.011 1.204 1.133 1.175 2.342-.015.645-.385 1.252-1.129 1.857-1.682 1.367-2.063 2.827-2.087 3.812-.057 2.396 1.825 4.149 2.04 4.341.246.22.553.328.86.328h.002c.382 0 .725-.167.96-.432l.001-.001a1.295 1.295 0 0 0-.103-1.827l-.001-.001c-.338-.309-1.211-1.336-1.18-2.356.019-.641.388-1.245 1.129-1.847zm18.459 12.672h-1.526v-.951c0-.713-.577-1.292-1.29-1.295H1.29A1.295 1.295 0 0 0 0 20.202V27.044c0 6.046 3.328 11.361 8.325 14.364H1.29a1.296 1.296 0 1 0 0 2.592h32.908a1.296 1.296 0 1 0 0-2.592h-7.035c2.841-1.707 5.143-4.162 6.6-7.075h3.251c3.614 0 6.555-2.956 6.555-6.59s-2.94-6.59-6.555-6.59zm-4.105 5.891c0 7.92-6.802 14.364-15.165 14.364S2.578 34.964 2.578 27.044v-5.545h30.33v5.545zm4.105 4.695h-2.219c.439-1.403.693-3.015.693-4.687v-3.308h1.526c2.192 0 3.976 1.793 3.976 3.998s-1.784 3.996-3.976 3.996zM10.373 8.481c1.682-1.367 2.063-2.827 2.087-3.812.057-2.396-1.825-4.149-2.04-4.341a1.28 1.28 0 0 0-1.819.105L8.6.434a1.301 1.301 0 0 0 .107 1.83c.013.011 1.204 1.133 1.175 2.342-.015.645-.385 1.252-1.129 1.857C7.071 7.83 6.69 9.29 6.666 10.275c-.057 2.396 1.825 4.149 2.04 4.341a1.28 1.28 0 0 0 1.819-.105l.001-.001a1.301 1.301 0 0 0-.107-1.83c-.013-.011-1.204-1.133-1.175-2.342.015-.645.385-1.252 1.129-1.857z"/></symbol><symbol id="dev" viewBox="0 0 45 44"><path fill="var(--color1, #005541)" d="M24.292 44h-2.747c-2.222 0-4.029-1.817-4.029-4.05v-.934a17.516 17.516 0 0 1-2.839-1.191l.096.046-.659.662c-.728.733-1.735 1.186-2.849 1.186s-2.122-.454-2.85-1.187l-1.941-1.951c-1.551-1.558-1.596-4.126 0-5.729l.658-.661a17.84 17.84 0 0 1-1.139-2.759h-.929c-2.222 0-4.029-1.817-4.029-4.05v-2.761c0-2.233 1.807-4.05 4.029-4.05h.929c.344-1.074.73-1.986 1.185-2.857l-.047.098-.659-.662c-1.596-1.603-1.552-4.17 0-5.729L8.413 5.47c.728-.733 1.735-1.186 2.849-1.186s2.121.453 2.849 1.186l.658.661a16.873 16.873 0 0 1 2.619-1.11l.125-.036v-.934c0-2.233 1.807-4.05 4.029-4.05h2.747c2.222 0 4.029 1.817 4.029 4.05v.934c.945.304 1.862.686 2.743 1.145l.659-.662c.728-.733 1.735-1.186 2.849-1.186s2.122.454 2.85 1.187L39.36 7.42c1.551 1.558 1.596 4.126-.001 5.729l-.658.661c.409.772.795 1.685 1.103 2.633l.035.126h.929c2.222 0 4.029 1.817 4.029 4.05v2.761c0 2.233-1.807 4.05-4.029 4.05h-.929a17.66 17.66 0 0 1-1.185 2.857l.047-.099.659.662c1.595 1.603 1.551 4.17-.001 5.729l-1.938 1.953c-.728.733-1.735 1.186-2.849 1.186s-2.121-.453-2.849-1.186l-.658-.661c-.769.411-1.676.799-2.619 1.11l-.125.036v.934c0 2.233-1.807 4.05-4.029 4.05zm-9.09-8.837a14.749 14.749 0 0 0 3.813 1.611l.105.024c.558.149.961.65.961 1.245v1.907a1.47 1.47 0 0 0 1.464 1.472h2.747a1.47 1.47 0 0 0 1.465-1.472v-1.906c0-.595.404-1.096.952-1.243l.009-.002a15.06 15.06 0 0 0 3.986-1.672l-.068.038a1.273 1.273 0 0 1 1.559.198l1.341 1.349a1.458 1.458 0 0 0 2.07.001l1.943-1.952a1.477 1.477 0 0 0 .001-2.082l-1.342-1.349a1.293 1.293 0 0 1-.197-1.567 14.941 14.941 0 0 0 1.602-3.833l.024-.106a1.284 1.284 0 0 1 1.242-.967h1.893a1.47 1.47 0 0 0 1.465-1.473v-2.761a1.47 1.47 0 0 0-1.465-1.472h-1.893a1.284 1.284 0 0 1-1.242-.967 15.254 15.254 0 0 0-1.664-4.009l.039.07a1.295 1.295 0 0 1 .197-1.568l1.341-1.349c.58-.582.564-1.516.001-2.082l-1.943-1.952a1.46 1.46 0 0 0-2.071 0l-1.342 1.349a1.273 1.273 0 0 1-1.565.195l.006.003a14.749 14.749 0 0 0-3.813-1.611l-.105-.024a1.288 1.288 0 0 1-.961-1.245V4.054a1.47 1.47 0 0 0-1.465-1.473h-2.747a1.47 1.47 0 0 0-1.464 1.473V5.96c0 .595-.404 1.096-.952 1.243l-.009.002a15.06 15.06 0 0 0-3.986 1.672l.068-.038a1.273 1.273 0 0 1-1.559-.198l-1.341-1.349a1.458 1.458 0 0 0-2.07-.001L8.289 9.245a1.477 1.477 0 0 0 0 2.082l1.342 1.349c.414.416.495 1.061.197 1.568a14.941 14.941 0 0 0-1.602 3.833l-.024.106a1.284 1.284 0 0 1-1.242.967H5.066a1.47 1.47 0 0 0-1.464 1.473v2.761a1.47 1.47 0 0 0 1.464 1.473h1.893c.585 0 1.096.397 1.242.967.39 1.495.947 2.805 1.664 4.009l-.039-.07a1.295 1.295 0 0 1-.197 1.568L8.288 32.68a1.478 1.478 0 0 0 0 2.082l1.943 1.95a1.46 1.46 0 0 0 2.071 0l1.342-1.349c.305-.307.939-.566 1.56-.198zm7.718-3.59c-5.25 0-9.523-4.294-9.523-9.573s4.271-9.573 9.523-9.573 9.523 4.294 9.523 9.573-4.271 9.573-9.523 9.573zm0-16.568c-3.837 0-6.959 3.138-6.959 6.995s3.122 6.995 6.959 6.995 6.959-3.138 6.959-6.995-3.122-6.995-6.959-6.995z"/></symbol><symbol id="facebook" viewBox="0 0 44 44"><path d="M38.844 0H5.156A5.162 5.162 0 0 0 0 5.156v33.688A5.162 5.162 0 0 0 5.156 44h33.687A5.162 5.162 0 0 0 44 38.844V5.156A5.162 5.162 0 0 0 38.844 0zm1.719 38.844a1.72 1.72 0 0 1-1.719 1.719h-9.797V26.555h5.31l.877-5.328h-6.187v-3.743a2.53 2.53 0 0 1 2.581-2.529h-.003 3.523V9.626h-3.523c-4.376 0-7.904 3.545-7.904 7.921v3.68h-5.158v5.328h5.158v14.008H5.156a1.72 1.72 0 0 1-1.719-1.719V5.157a1.72 1.72 0 0 1 1.719-1.719h33.687a1.72 1.72 0 0 1 1.719 1.719v33.688z"/></symbol><symbol id="instagram" viewBox="0 0 44 44"><path d="M31.219 0H12.781C5.727.011.011 5.727 0 12.78v18.438C.01 38.273 5.726 43.989 12.78 44h18.438c7.055-.01 12.771-5.726 12.782-12.78V12.781C43.989 5.727 38.273.011 31.22 0h-.001zm9.344 31.219c0 5.152-4.192 9.344-9.344 9.344H12.781c-5.152 0-9.344-4.192-9.344-9.344V12.781c0-5.152 4.192-9.344 9.344-9.344h18.437c5.152 0 9.344 4.192 9.344 9.344v18.437zM22 10.141c-6.539 0-11.859 5.32-11.859 11.859S15.461 33.859 22 33.859 33.859 28.539 33.859 22 28.539 10.141 22 10.141zm0 20.281c-4.644 0-8.422-3.778-8.422-8.422s3.778-8.422 8.422-8.422 8.422 3.778 8.422 8.422-3.778 8.422-8.422 8.422zm12.031-18.734a1.72 1.72 0 0 0 1.719-1.719 1.72 1.72 0 0 0-1.719-1.719 1.72 1.72 0 0 0-1.719 1.719 1.72 1.72 0 0 0 1.719 1.719z"/></symbol><symbol id="review" viewBox="0 0 44 44"><path fill="var(--color1, #005541)" d="M39.218 0H15.19a4.739 4.739 0 0 0-4.719 4.739V15.53H4.72a4.739 4.739 0 0 0-4.719 4.739v13.816c0 2.61 2.11 4.728 4.718 4.739h7.893l3.051 4.6a1.286 1.286 0 0 0 2.142 0l3.051-4.6h7.892a4.739 4.739 0 0 0 4.719-4.739V23.294h5.75a4.739 4.739 0 0 0 4.719-4.739V4.739c0-2.61-2.11-4.728-4.718-4.739h-.001zm-8.325 34.079a2.154 2.154 0 0 1-2.146 2.157h-8.581a1.28 1.28 0 0 0-1.068.572l-.003.005-2.361 3.561-2.362-3.561a1.287 1.287 0 0 0-1.071-.577H4.72a2.154 2.154 0 0 1-2.146-2.157V20.276c0-1.189.963-2.157 2.146-2.157h5.75v.437c0 .785.192 1.526.53 2.178l-.012-.026H6.437c-.71 0-1.287.58-1.287 1.294s.576 1.294 1.287 1.294h16.646l1.716 2.588H6.437c-.71 0-1.287.58-1.287 1.294s.576 1.294 1.287 1.294H27.206c.445 0 .837-.227 1.067-.571l.003-.005 2.619-3.95V34.08zm10.47-15.53a2.154 2.154 0 0 1-2.146 2.157h-8.581c-.445 0-.837.227-1.067.571l-.003.005-2.362 3.561-2.362-3.561a1.286 1.286 0 0 0-1.071-.576H15.19a2.154 2.154 0 0 1-2.146-2.157V4.746c0-1.189.963-2.157 2.146-2.157h24.029c1.183 0 2.146.968 2.146 2.157v13.803zm-14.331 12.51H6.436c-.71 0-1.287.58-1.287 1.294s.576 1.294 1.287 1.294h20.596c.712 0 1.287-.58 1.287-1.294s-.576-1.294-1.287-1.294zm6.364-22.048-3.481-.509-1.556-3.172a1.287 1.287 0 0 0-1.154-.722h-.001c-.504 0-.94.291-1.15.714l-.003.007-1.556 3.172-3.481.509a1.289 1.289 0 0 0-1.104 1.282c0 .362.149.69.389.925l2.519 2.468-.595 3.486c-.083.485.116.977.512 1.266a1.274 1.274 0 0 0 1.362.095l-.007.003 3.114-1.646 3.114 1.646a1.283 1.283 0 0 0 1.359-.1l-.004.002c.396-.289.595-.781.512-1.266l-.595-3.486 2.519-2.469a1.295 1.295 0 0 0-.706-2.207l-.007-.001zm-4.087 3.296a1.291 1.291 0 0 0-.369 1.153l-.001-.008.268 1.571-1.404-.742a1.278 1.278 0 0 0-1.205.003l.007-.003-1.404.742.268-1.571a1.296 1.296 0 0 0-.37-1.145l-1.135-1.113 1.57-.229c.42-.062.782-.326.969-.708l.701-1.431.701 1.431c.187.382.549.646.969.708l1.57.229-1.136 1.113z"/></symbol><symbol id="telegram" viewBox="0 0 42 44"><path d="M41.437 4.297c-.514-.647-1.284-1.001-2.168-1.001-.481 0-.99.104-1.513.31L2.129 17.583c-1.89.741-2.145 1.855-2.128 2.452s.332 1.694 2.26 2.324l.034.011 7.39 2.173 3.996 11.745c.545 1.601 1.768 2.596 3.193 2.596.898 0 1.781-.386 2.555-1.118L24 33.441l6.712 5.555c.737.587 1.541.897 2.327.898 1.535 0 2.758-1.168 3.113-2.975l5.837-29.623c.234-1.189.038-2.253-.554-2.996zm-29.28 19.832 14.257-7.486-8.877 9.695a1.275 1.275 0 0 0-.299.564l-1.712 7.126-3.369-9.9zm5.601 11.772a2.218 2.218 0 0 1-.172.147l-.005.004 1.588-6.611 2.889 2.391-4.3 4.068zM39.574 6.79l-5.838 29.623c-.056.283-.235.943-.697.943-.228 0-.515-.127-.807-.36l-11.986-9.918 12.837-14.02c.411-.449.449-1.136.088-1.629s-1.013-.649-1.547-.367L10.51 22.147l-7.491-2.203L38.634 5.971a1.75 1.75 0 0 1 .634-.143c.076 0 .209.01.259.073.066.082.149.363.046.888z"/></symbol><symbol id="works" viewBox="0 0 54 44"><path fill="var(--color1, #005541)" d="M49 6.326H37.795V4.311C37.795 1.934 35.872 0 33.507 0H19.641c-2.365 0-4.288 1.933-4.288 4.311v2.015H4.149C1.861 6.326 0 8.197 0 10.497V39.83C0 42.129 1.861 44 4.149 44H49c2.288 0 4.149-1.871 4.149-4.171V10.497c0-2.299-1.861-4.17-4.149-4.17zM18.977 4.311v-.003c0-.368.298-.666.665-.666H33.51a.667.667 0 0 1 .665.666V6.326H18.977V4.311zM4.149 9.969H49a.527.527 0 0 1 .525.528v9.557c-5.614 2.093-14.083 3.33-22.967 3.33-8.865 0-17.321-1.232-22.935-3.319v-9.568c0-.291.235-.527.525-.528zM49 40.358H4.149a.527.527 0 0 1-.525-.528V23.925c5.139 1.705 11.895 2.769 19.258 3.036 0 .021-.003.041-.003.063v.806a2.728 2.728 0 0 0 2.716 2.728h1.96a2.728 2.728 0 0 0 2.717-2.728v-.806l-.003-.064c7.367-.269 14.123-1.338 19.258-3.045V39.83a.528.528 0 0 1-.525.528z"/></symbol></defs></svg>